<svg width="126" height="48" viewBox="0 0 96 28" fill="none" xmlns="http://www.w3.org/2000/svg">
<path fill-rule="evenodd" clip-rule="evenodd" d="M94.4558 15.1099C94.6583 14.8739 95.0171 14.8847 95.2014 15.1365H95.2L95.9013 16.0953C96.0343 16.2795 96.0334 16.5337 95.8944 16.7131C94.677 18.2922 92.544 19.8122 89.9703 19.9593C87.9387 20.0748 86.2633 19.3052 85.3513 17.8501C85.1707 17.5623 84.7726 17.5455 84.5701 17.8176C83.488 19.2702 82.1787 20.4061 80.8146 20.4843C78.3849 20.6229 77.6987 18.9933 78.2994 15.4002C78.3598 15.0425 78.0462 14.7402 77.7083 14.8293C77.2046 14.963 76.6697 15.022 76.1271 14.9751C75.9013 14.9557 75.6896 15.0931 75.6215 15.3171C74.7223 18.2705 72.5824 21.018 69.8126 21.177C68.0443 21.2782 65.403 20.2651 65.6672 16.0325C65.6891 15.6881 65.3801 15.4171 65.0619 15.5134C64.5074 15.6821 63.9104 15.7616 63.3024 15.7098C63.077 15.6905 62.8663 15.8278 62.7982 16.0519C61.899 19.0053 59.7591 21.7528 56.9893 21.9117C55.221 22.0129 52.5797 21 52.8439 16.7674C52.8658 16.4228 52.5568 16.1518 52.2386 16.2482C51.6841 16.4169 51.0871 16.4976 50.4791 16.4445C50.2537 16.4253 50.043 16.5626 49.9749 16.7866C49.0752 19.7401 46.9358 22.4875 44.166 22.6465C42.908 22.7188 41.2068 22.2261 40.4255 20.4121C40.275 20.0617 39.8237 20.0086 39.6003 20.3134C38.5067 21.8058 37.1745 22.9838 35.7834 23.0633C34.3575 23.1451 33.5776 22.573 33.2384 21.5527C33.1181 21.1926 32.6678 21.1071 32.4248 21.3925C31.4515 22.5369 30.3428 23.3752 29.2213 23.439C27.4923 23.539 26.4969 22.2574 26.4148 20.7048C26.3199 18.8933 27.1034 16.7721 27.9783 14.4571C28.0998 14.1355 27.8799 13.7873 27.5478 13.7729C27.0432 13.7513 26.4669 13.6982 25.9252 13.597C25.681 13.5501 25.4438 13.7019 25.3743 13.95C24.3397 17.6442 22.7552 21.2649 21.4185 23.4053C21.2692 23.645 20.9602 23.7088 20.7357 23.5438L19.7149 22.7923C19.5055 22.6368 19.4487 22.3381 19.5888 22.1129C21.5204 19.0185 23.2356 14.174 23.827 10.5907C23.864 10.3618 24.0503 10.192 24.2736 10.1787L25.6312 10.1004C25.9425 10.0824 26.1879 10.3727 26.1312 10.6918L26.1254 10.7256C26.0745 11.0098 26.2643 11.2772 26.5386 11.3146C27.7561 11.4821 29.5755 11.5024 30.8103 11.4543C31.1575 11.441 31.4029 11.8 31.2767 12.136C30.286 14.7715 28.9586 18.4235 29.0349 19.8689C29.0697 20.5217 29.3579 20.8783 29.8647 20.8493C30.8347 20.794 32.3264 18.8438 33.4572 16.6722C33.478 16.6336 33.493 16.5915 33.5023 16.5482C33.8832 14.8477 34.4487 12.9517 35.0199 11.036L35.0554 10.9171C35.1144 10.7172 35.2869 10.5774 35.4883 10.5654L37.1143 10.4726C37.45 10.4533 37.7011 10.7906 37.5993 11.1242C37.5156 11.3994 37.4322 11.6727 37.3496 11.9435C35.9188 16.6333 34.7172 20.5718 36.3355 20.4796C37.3933 20.4193 38.8921 18.6246 40.1813 16.0699C40.2021 16.0277 40.2172 15.9831 40.2265 15.9362C40.2913 15.6025 40.3699 15.2533 40.4661 14.8883C41.2178 11.8858 42.0702 8.91158 42.9237 5.93371C43.1871 5.01467 43.4506 4.09527 43.7112 3.1746C43.7691 2.97105 43.9426 2.82771 44.1463 2.81566L45.8153 2.7205C46.1545 2.70124 46.4055 3.04211 46.299 3.37816C45.6324 5.46916 44.9356 7.69627 44.2737 9.84027C44.1348 10.292 44.6185 10.6677 45.0005 10.4076C45.659 9.95712 46.4206 9.65837 47.1579 9.61622C49.0363 9.50902 50.315 11.0544 50.4375 13.3827C50.4443 13.5056 50.4517 13.638 50.4549 13.7729C50.4617 14.0308 50.6551 14.2391 50.9019 14.2608C51.7861 14.3391 52.6898 14.0765 53.3879 13.4538C53.4597 13.3899 53.5081 13.3032 53.5323 13.2092C54.2245 10.5219 54.9883 7.85453 55.7527 5.18386C56.0146 4.26951 56.2766 3.35475 56.5358 2.43865C56.5934 2.23509 56.7671 2.09175 56.971 2.07971L58.6395 1.98456C58.9787 1.96529 59.2302 2.30615 59.1237 2.64221C58.4567 4.73322 57.76 6.96032 57.0981 9.10432C56.9591 9.55602 57.4432 9.93179 57.8249 9.67163C58.4837 9.22116 59.2453 8.92247 59.9822 8.88027C61.8606 8.77312 63.1392 10.3184 63.2622 12.6468C63.269 12.7696 63.2759 12.9022 63.2795 13.037C63.285 13.2948 63.4798 13.5032 63.7262 13.5249C64.6103 13.6031 65.5141 13.3405 66.2121 12.7178C66.2839 12.654 66.3323 12.5673 66.357 12.4733C67.0491 9.78596 67.8126 7.11867 68.5774 4.44804C68.8393 3.53364 69.1008 2.61884 69.36 1.70271C69.4181 1.49915 69.5918 1.35581 69.7952 1.34377L71.4642 1.24861C71.8034 1.22934 72.0544 1.57021 71.9479 1.90627C71.2814 3.99726 70.5847 6.22436 69.9227 8.36836C69.7838 8.82006 70.2674 9.19588 70.6496 8.93572C71.3079 8.48521 72.0695 8.18651 72.8069 8.14436C74.6853 8.03716 75.9639 9.58249 76.0869 11.9108C76.0937 12.0349 76.1006 12.1662 76.1038 12.301C76.1111 12.5576 76.3031 12.7672 76.5495 12.7889C77.4048 12.8647 78.2798 12.6214 78.9673 12.0421C79.0437 11.9782 79.0967 11.8879 79.1223 11.7891C79.9104 8.7514 81.0679 4.77176 82.1838 0.963148C82.2427 0.761997 82.416 0.622276 82.6176 0.610231L84.2715 0.515076C84.6071 0.495804 84.8581 0.830654 84.7575 1.1643C83.2215 6.26413 81.9694 10.7256 81.2786 13.3574C80.3607 16.9275 80.325 17.9573 81.3687 17.8971C82.245 17.8465 83.4254 16.6035 84.5385 14.7244C84.5829 14.651 84.6057 14.5667 84.6094 14.4812C84.7552 10.7195 87.0615 7.2976 90.4896 7.10125C92.7858 6.96996 94.0439 8.70445 94.1339 10.4112C94.3054 13.6693 91.0848 15.752 87.9634 15.5592C87.6 15.5363 87.3358 15.9266 87.4958 16.2662C87.9319 17.1985 88.8498 17.7189 90.4169 17.6285C91.9077 17.5443 93.4711 16.2578 94.4558 15.1099ZM42.8593 16.0241C42.1186 18.9933 43.0179 20.1555 44.181 20.0893C46.0905 19.9797 47.9378 16.4806 47.7957 13.7801C47.733 12.601 47.0432 11.9866 46.2377 12.0325C44.8963 12.1095 43.452 13.6549 42.8593 16.0241ZM55.6837 15.2895C54.9431 18.2585 55.8423 19.4208 57.0057 19.3546H57.0043C58.9138 19.245 60.7621 15.7459 60.6199 13.0454C60.5586 11.8662 59.8674 11.2519 59.0619 11.2977C57.7207 11.3748 56.2766 12.9202 55.6837 15.2895ZM68.5083 14.5546C67.7678 17.5237 68.667 18.6861 69.8299 18.6199H69.829C71.7371 18.5103 73.5867 15.0112 73.4446 12.3107C73.3829 11.1315 72.6921 10.5172 71.8866 10.563C70.5454 10.64 69.1008 12.1855 68.5083 14.5546ZM91.6955 10.6738C91.6841 9.89568 91.2059 9.33197 90.4306 9.37655H90.4297C88.9065 9.46445 87.7143 11.1134 87.3349 13.1141C87.2745 13.4321 87.5072 13.7284 87.8185 13.7211C89.7861 13.6718 91.7582 12.3733 91.6955 10.6738ZM20.2754 12.1183C20.0764 6.08969 16.1565 2.11126 10.364 2.31843C7.87689 2.43166 5.03095 3.37478 2.88989 5.06107C2.68852 5.22007 2.63643 5.51154 2.773 5.73316L3.68151 7.21229C3.83659 7.46523 4.16643 7.51703 4.39212 7.32914C6.02167 5.97527 8.24608 5.08758 10.386 4.99362C14.3557 4.8286 17.2721 7.3701 17.4423 12.2796C17.6553 17.9962 13.8129 24.5354 7.63845 24.8895C7.42318 24.9015 7.19867 24.9064 6.97413 24.9064C6.65934 24.9064 6.42674 24.5992 6.50542 24.2812C7.69632 19.474 9.08631 14.3188 10.504 9.52132C10.6024 9.18765 10.3524 8.85522 10.018 8.87451L8.21248 8.9781C8.00997 8.99012 7.83634 9.13106 7.77733 9.33339C6.41513 14.0478 5.05179 19.1609 3.82502 23.9584C3.75442 24.2354 3.47319 24.3945 3.21163 24.3052C2.57163 24.0873 1.98717 23.8392 1.48951 23.5488C1.25109 23.4091 0.949033 23.508 0.826354 23.7632L0.0509349 25.3845C-0.0636416 25.6243 0.0208443 25.9181 0.246526 26.0469C2.00452 27.0443 4.67337 27.614 7.35607 27.4611C16.1843 26.9551 20.5093 18.8007 20.2754 12.1206V12.1183ZM37.6249 4.71123C36.5509 4.77265 35.5983 5.97956 35.6655 7.25152C35.7094 8.08983 36.2476 8.64992 37.0832 8.60297C38.1572 8.54153 39.1363 7.27076 39.0726 6.06025C39.0288 5.22194 38.4002 4.66666 37.6249 4.71123Z" fill="#0D0C22"/>
</svg>
